<?xml version="1.0" encoding="UTF-8" standalone="no"?>
<!-- Created with Inkscape (http://www.inkscape.org/) -->

<svg
   width="168.91158mm"
   height="99.38221mm"
   viewBox="0 0 168.91158 99.38221"
   version="1.1"
   id="svg1"
   xml:space="preserve"
   xmlns:inkscape="http://www.inkscape.org/namespaces/inkscape"
   xmlns:sodipodi="http://sodipodi.sourceforge.net/DTD/sodipodi-0.dtd"
   xmlns="http://www.w3.org/2000/svg"
   xmlns:svg="http://www.w3.org/2000/svg"><sodipodi:namedview
     id="namedview1"
     pagecolor="#ffffff"
     bordercolor="#000000"
     borderopacity="0.25"
     inkscape:showpageshadow="2"
     inkscape:pageopacity="0.0"
     inkscape:pagecheckerboard="0"
     inkscape:deskcolor="#d1d1d1"
     inkscape:document-units="mm" /><defs
     id="defs1"><linearGradient
       id="swatch7"
       inkscape:swatch="solid"><stop
         style="stop-color:#000000;stop-opacity:1;"
         offset="0"
         id="stop7" /></linearGradient></defs><g
     inkscape:label="Calque 1"
     inkscape:groupmode="layer"
     id="layer1"
     transform="translate(-20.081292,-42.437773)"><path
       style="fill:#0faece;fill-opacity:1;stroke:none"
       d="m 188.99287,94.622932 c -3.21617,4.03578 -7.49149,7.054648 -11.85333,9.742468 -6.48649,3.99707 -13.44152,7.29007 -20.48934,10.16978 -10.46132,4.27448 -21.14608,8.12102 -32.17333,10.65828 -17.87043,4.11182 -36.306549,4.98977 -54.525335,3.24909 -11.093478,-1.05991 -22.548436,-3.07498 -32.850668,-7.45673 -2.578608,-1.09674 -5.224053,-2.36456 -7.449883,-4.08417 -1.134694,-0.87664 -2.189251,-2.64137 -3.579999,-3.069 -2.289702,-0.70402 -4.161759,2.15544 -4.972271,4.15828 -1.419293,3.50719 -1.634038,8.28871 1.192351,11.28766 1.658986,1.76027 4.026249,2.8649 6.173802,3.90238 9.77853,4.72396 21.113115,6.66486 31.834668,7.7788 34.81706,3.61739 70.386845,-4.30536 100.922665,-21.29454 7.96772,-4.43298 16.29262,-9.32636 22.37862,-16.23699 2.1026,-2.38749 4.89437,-5.543588 5.39205,-8.805308"
       id="path1"
       sodipodi:nodetypes="csssssssascsssc" />
       <g
       id="g7"
       transform="translate(-0.82946322,0.96177395)"
       style="fill:#ffb346;fill-opacity:1;stroke:none;">
       <!-- <path
         style="fill:#ffb346;fill-opacity:1;stroke:#ffb346;stroke-width:0.3;stroke-linecap:butt;stroke-linejoin:round;stroke-miterlimit:3.2;stroke-dasharray:none;stroke-opacity:1;paint-order:normal"
         d="m 76.96373,70.953679 c -1.046895,-0.54064 -3.084545,-1.69116 -4.528112,-2.55671 -4.097001,-2.45652 -15.428898,-10.07589 -16.455757,-11.06456 -1.377804,-1.32655 -1.868496,-2.27074 -1.965481,-3.78198 -0.0708,-1.10322 -0.02748,-1.35526 0.373898,-2.17566 0.510528,-1.04348 1.186646,-1.68785 2.281401,-2.17427 0.616314,-0.27384 1.023333,-0.31888 2.370667,-0.26232 3.377433,0.14177 4.233779,0.87805 13.651797,11.73782 5.531486,6.37827 7.639661,9.04326 7.804071,9.86531 0.08447,0.42237 0.01947,0.61201 -0.32931,0.9608 -0.239714,0.23971 -0.628517,0.43455 -0.867143,0.43455 -0.237922,0 -1.289136,-0.44234 -2.336031,-0.98298 z m 3.001047,0.31247 c 0.572965,-0.63311 0.167277,-1.28354 -3.653848,-5.85807 -7.094997,-8.4939 -12.779272,-14.60291 -14.296544,-15.36478 -3.073027,-1.54306 -5.79236,-1.10619 -7.192314,1.15548 -1.157403,1.86983 -0.518982,4.26021 1.649401,6.1757 1.069216,0.94452 12.596484,8.62366 16.0844,10.71498 3.48151,2.08747 6.199562,3.50854 6.710716,3.50854 0.218831,0 0.533016,-0.14933 0.698189,-0.33185 z m 3.187014,-1.23449 c -0.08945,-0.11641 -0.60163,-1.50496 -1.138188,-3.08567 -0.536558,-1.5807 -1.835585,-5.1621 -2.886727,-7.95866 -3.019255,-8.03274 -3.394797,-9.39838 -3.27478,-11.90863 0.08987,-1.8797 0.6123,-3.05316 1.857836,-4.173 0.993513,-0.89326 2.082637,-1.2797 3.606595,-1.2797 1.736541,0 3.2579,1.08543 4.158054,2.96661 0.973944,2.0354 0.971117,3.54342 -0.02253,12.01939 -0.436469,3.72313 -0.545917,5.36913 -0.589487,8.86536 -0.03653,2.93151 -0.115713,4.36831 -0.249624,4.52966 -0.243708,0.29365 -1.24153,0.31048 -1.461145,0.0246 z m 1.328093,-0.51395 c 0.01188,-0.11314 0.0387,-1.92021 0.05961,-4.01571 0.03092,-3.09879 0.152111,-4.8057 0.649244,-9.144 0.789991,-6.89397 0.901783,-8.6627 0.621759,-9.83724 -0.337284,-1.41471 -0.762875,-2.27409 -1.54805,-3.1259 -1.526886,-1.65648 -3.216159,-1.96439 -5.259175,-0.95862 -1.700093,0.83695 -2.630824,2.22602 -2.91764,4.35442 -0.274737,2.03877 0.671335,5.22148 4.486089,15.09178 0.364436,0.94294 1.122768,3.07654 1.685183,4.74133 0.562414,1.66479 1.14593,3.11919 1.296702,3.232 0.306792,0.22954 0.888992,0.0171 0.926278,-0.33806 z m 3.521842,-0.76027 -0.525902,-0.4699 0.242164,-0.92735 c 0.179183,-0.68616 0.837321,-1.80809 2.53052,-4.31377 1.258595,-1.86253 3.685898,-5.59305 5.394007,-8.29004 1.708109,-2.69699 3.691886,-5.63069 4.408395,-6.51934 3.39198,-4.20687 6.31878,-6.10399 9.1923,-5.95833 1.17503,0.0596 2.30842,2.03007 2.30842,4.0134 0,2.1234 -1.07567,3.6926 -5.66712,8.26729 -6.683,6.65863 -12.667834,12.1603 -15.060447,13.84461 -1.402633,0.9874 -2.025503,1.0654 -2.822337,0.35343 z m 3.06056,-0.94413 c 1.984953,-1.4792 4.245866,-3.50269 9.449474,-8.45714 5.45242,-5.19134 8.58295,-8.41472 9.4867,-9.7681 0.96126,-1.4395 1.43233,-2.76703 1.28936,-3.63352 -0.31696,-1.9209 -1.15757,-3.21442 -2.21825,-3.41341 -0.84443,-0.15841 -2.70325,0.48372 -4.13762,1.42935 -1.45748,0.96087 -3.90153,3.41681 -5.337865,5.36384 -0.551129,0.74709 -1.953296,2.87 -3.115926,4.71758 -1.16263,1.84759 -3.495571,5.44363 -5.184312,7.99121 -1.688741,2.54758 -3.12111,4.84427 -3.183041,5.10375 -0.06193,0.25949 -0.15032,0.59916 -0.196419,0.75483 -0.121033,0.40872 0.577546,0.98722 1.190162,0.98559 0.370981,-9.9e-4 0.927718,-0.30641 1.957737,-1.07398 z"
         id="path2"
         sodipodi:nodetypes="sccsssssssssssssssssssscsssssssssccsssssssssssscsssssssssssssssssss" /> -->
         <!-- <path
         d="m 74.142325,77.475428 c -1.169158,0.1461 -3.500336,0.34938 -5.18039,0.45178 -4.768171,0.2906 -18.422894,0.41416 -19.828877,0.17938 -1.886488,-0.315 -2.825102,-0.81627 -3.759649,-2.00786 -0.682224,-0.86987 -0.789031,-1.10223 -0.921874,-2.00585 -0.168979,-1.14932 0.0243,-2.06311 0.652166,-3.08333 0.35347,-0.57435 0.6637,-0.84166 1.806932,-1.55689 2.865779,-1.79288 3.988413,-1.66985 17.896943,1.96145 8.168905,2.13276 11.414622,3.13869 12.015063,3.72372 0.308528,0.30058 0.362152,0.49374 0.271691,0.97865 -0.06216,0.33326 -0.272655,0.71381 -0.469471,0.84874 -0.19623,0.13454 -1.313375,0.36414 -2.482534,0.51021 z m 2.651875,-1.43927 c 0.114562,-0.84616 -0.587835,-1.15321 -6.326124,-2.76546 -10.654759,-2.99357 -18.797416,-4.81787 -20.479629,-4.58827 -3.407098,0.46501 -5.402893,2.36301 -5.27865,5.02 0.102752,2.19665 1.980955,3.80718 4.852517,4.16088 1.415955,0.17441 15.265613,-0.0103 19.324914,-0.25773 4.051845,-0.24697 7.097183,-0.61187 7.518773,-0.90092 0.180486,-0.12373 0.355172,-0.42456 0.388199,-0.6685 z"
         style="fill:#ffb346;fill-opacity:1;stroke:#ffb346;stroke-width:0.3;stroke-linecap:butt;stroke-linejoin:round;stroke-miterlimit:3.2;stroke-dasharray:none;stroke-opacity:1;paint-order:normal"
         id="path1-7"
         sodipodi:nodetypes="ssssssssssssssssssss" /> -->
         <path
         d="m 184.04218,293.39144 c -6.32521,-1.53249 -11.47259,-5.24468 -13.54961,-9.77174 -1.61537,-3.52082 -1.49282,-9.1369 0.27805,-12.74292 0.73658,-1.49991 2.32898,-3.63941 3.53867,-4.75446 3.75832,-3.46431 11.15374,-6.29532 16.44517,-6.29532 8.25417,0 39.02967,7.11542 76.32353,17.6463 20.08709,5.67211 23.50546,7.19075 22.7712,10.11627 -0.46989,1.87222 -2.09069,2.62464 -7.33852,3.40673 -13.59509,2.02609 -40.62197,3.15321 -74.40737,3.10306 -16.48471,-0.0245 -21.89755,-0.18372 -24.06112,-0.70792 z"
         id="path4"
         transform="scale(0.26458333)" />
         <path
         d="m 297.22797,269.54126 c -8.95756,-3.50378 -36.14986,-20.30616 -68.79969,-42.51198 -14.49592,-9.85897 -18.18621,-13.05678 -20.86919,-18.08413 -1.74658,-3.27272 -1.86831,-3.76796 -1.87047,-7.60944 -0.003,-4.85235 1.02739,-7.43656 4.25765,-10.68097 5.22259,-5.24547 12.90315,-6.0616 21.87918,-2.32486 4.07721,1.69734 9.09242,6.02336 18.27524,15.76382 15.79766,16.75699 44.94691,50.795 50.10915,58.51321 2.72751,4.07796 2.94749,5.41886 1.12429,6.85299 -1.50806,1.18625 -1.29238,1.18197 -4.10616,0.0814 z"
         id="path5"
         transform="scale(0.26458333)" /><path
         d="m 314.73031,261.15635 c -0.74362,-1.66168 -2.82572,-7.26307 -4.62688,-12.44753 -1.80116,-5.18445 -4.67738,-13.12428 -6.39159,-17.64406 -14.2905,-37.6791 -17.12167,-47.72875 -15.65595,-55.57302 0.69616,-3.72572 2.86342,-8.32669 5.07571,-10.77542 3.38234,-3.74385 11.39897,-6.88886 15.60826,-6.12329 4.27471,0.77747 9.13383,4.37168 11.95761,8.84485 0.68592,1.08657 1.81681,3.66547 2.51308,5.73088 1.22266,3.62689 1.25705,4.03631 1.00573,11.97309 -0.14311,4.51978 -0.93513,14.19984 -1.76003,21.51125 -2.33055,20.65658 -2.86178,27.69242 -3.22263,42.68173 -0.30485,12.66302 -0.41296,13.96115 -1.19768,14.38112 -1.5329,0.82038 -1.93098,0.51215 -3.30563,-2.5596 z"
         id="path6"
         transform="scale(0.26458333)" /><path
         d="m 335.23371,259.61677 c -2.14699,-0.90274 -2.81395,-1.93383 -2.46254,-3.80698 0.41051,-2.18819 3.5852,-7.44687 15.81417,-26.19523 5.7228,-8.77369 13.75773,-21.16749 17.85539,-27.54177 8.73418,-13.58682 11.54637,-17.46785 17.16467,-23.68849 8.39442,-9.2944 16.92557,-15.17925 24.54975,-16.9346 3.18821,-0.73404 3.38385,-0.72521 5.38428,0.24318 3.64022,1.76221 6.67546,7.75053 6.73999,13.29759 0.0285,2.44622 -0.27696,3.5438 -1.95046,7.00928 -1.09131,2.25989 -3.04856,5.51661 -4.34943,7.23715 -6.27496,8.29932 -49.83632,50.43924 -64.61466,62.50624 -9.17874,7.49476 -11.69622,8.89745 -14.13116,7.87363 z"
         id="path7"
         transform="scale(0.26458333)" /></g><path
       d="m 60.292211,106.22795 c -4.866961,4.69404 -11.190599,9.1293 -18.220455,8.77575 -1.338448,-0.098 -2.493215,-0.17509 -3.734793,-0.68629 -1.032629,-0.42517 -2.014437,-0.98497 -2.872346,-1.70272 -4.351071,-3.64015 -4.23916,-9.49543 -1.977502,-14.274257 1.697232,-3.58622 4.832651,-6.79444 8.744515,-7.88733 1.401181,-0.39146 2.801475,-0.2287 4.232796,-0.24736 0.730462,-0.01 1.589506,-0.0316 2.087935,-0.653 0.342948,-0.42753 0.418442,-1.01204 0.413928,-1.54285 -0.01832,-2.15401 -1.874754,-3.47737 -3.856,-3.78947 -3.840305,-0.60497 -7.163909,1.23492 -10.15997,3.41046 -2.503,1.81751 -4.267142,4.08734 -5.972353,6.64555 -1.155719,1.73385 -2.172161,3.37756 -2.695657,5.41867 -0.985153,3.841087 -0.36268,8.225377 1.546432,11.683987 4.12678,7.47622 14.125222,9.08472 21.684223,6.60679 9.129657,-2.99279 16.036047,-10.81265 21.359697,-18.460107 2.03239,-2.91956 4.15856,-6.03521 5.5643,-9.31334 h 0.16934 c -0.87213,4.65767 -2.1929,9.22681 -3.0745,13.885327 -0.3267,1.7263 -0.96167,4.1493 0.39779,5.60665 1.63164,1.74913 3.32692,-0.1919 4.28702,-1.54425 1.76368,-2.48419 3.4024,-5.06358 5.06084,-7.61839 0.94715,-1.459067 1.99853,-2.862487 2.81151,-4.402667 h 0.16934 c -1.26738,5.296867 -3.0868,11.952357 0.55183,16.760017 1.90053,2.51114 5.00594,3.77655 8.08417,3.99026 1.292535,0.0897 3.255055,-0.17792 3.741225,-1.62937 0.21802,-0.65091 -0.17869,-1.17093 -0.74695,-1.44785 -1.64213,-0.80025 -3.248845,-0.90231 -4.596085,-2.31742 -2.34714,-2.4654 -2.45074,-6.05968 -2.25807,-9.25965 0.31826,-5.285727 2.59443,-10.500417 5.424755,-14.901327 0.98568,-1.53266 2.09242,-2.97147 3.21762,-4.40267 0.557214,-0.70875 1.330234,-1.56658 1.275704,-2.53459 -0.0337,-0.59834 -0.40367,-1.11287 -0.86852,-1.46587 -1.892344,-1.43702 -4.065664,0.0418 -5.528349,1.35056 -3.11981,2.79162 -5.76394,6.11594 -8.31067,9.42324 -1.51942,1.97319 -3.15757,3.92513 -4.38933,6.096 -0.0296,-1.99397 0.67571,-4.00947 1.16655,-5.92666 0.89977,-3.51454 1.87484,-7.02068 2.90657,-10.49868 0.39959,-1.34705 0.83768,-2.69575 1.16023,-4.06376 0.16657,-0.70644 0.26091,-1.46005 -0.21605,-2.0724 -0.39485,-0.50691 -1.0262,-0.7725 -1.63261,-0.92474 -3.32934,-0.83583 -4.86021,2.46254 -6.29677,4.85956 -3.60207,6.01037 -6.75276,12.27433 -10.63525,18.11868 -0.98684,1.4855 -1.98161,2.9639 -3.03595,4.40267 -0.74117,1.011407 -1.15867,1.416027 -2.26364,3.121367 m 63.720259,4.32929 c 0.75787,-2.83956 2.56436,-5.26968 4.26503,-7.619987 0.64251,-0.88795 2.10871,-2.30114 1.9748,-3.49253 -0.10267,-0.91341 -1.23104,-1.26498 -1.45164,-2.15895 -0.40395,-1.63695 0.0436,-3.16889 -1.10089,-4.6311 -1.62748,-2.07936 -4.68334,-1.70294 -6.90464,-0.97605 -5.23395,1.71274 -9.13035,6.52357 -11.2645,11.42796 -1.1032,2.535197 -1.82706,5.658787 -0.63502,8.296907 1.9704,4.36068 7.29669,3.99391 9.86752,0.50841 h 0.16934 c 0.76096,2.4809 2.92578,3.43311 5.24933,2.15881 2.83302,-1.55371 5.0246,-4.33292 7.112,-6.73081 0.0225,1.13769 0.0919,2.28759 0.41154,3.38658 0.2269,0.78018 0.59424,1.51872 1.1249,2.13772 0.46397,0.54121 1.03968,0.97885 1.68486,1.28186 4.39739,2.06522 8.56951,-1.55395 11.5107,-4.43549 -0.0849,0.73364 -0.16213,1.46727 -0.0371,2.20187 0.38244,2.24768 2.34917,3.16797 4.4398,2.57324 2.69308,-0.76611 4.85036,-3.03154 6.77333,-4.94444 -0.22133,0.93991 -0.42025,1.91845 -0.14756,2.87199 0.51626,1.80518 2.48441,2.63511 4.21156,2.11243 2.24727,-0.68008 4.12858,-2.73531 5.588,-4.47642 l -4.40266,0.508 c 2.04268,-5.18621 6.45708,-9.313147 7.97328,-14.731987 0.49157,-1.75688 0.005,-3.40697 -1.71317,-4.2579 -0.54528,-0.2701 -1.29122,-0.48924 -1.86776,-0.18255 -0.74233,0.39488 -0.79056,1.52296 -0.98655,2.23965 -0.3113,1.13836 -0.85545,2.10251 -1.55361,3.04746 -2.33438,3.15958 -4.68756,6.33858 -7.25604,9.313327 -1.66862,1.93255 -3.47267,3.90963 -5.77216,5.08 0.95856,-2.95764 2.97165,-5.50881 4.59438,-8.127987 1.49279,-2.40947 3.92364,-5.66732 3.81582,-8.63576 -0.0556,-1.53049 -2.12227,-3.99878 -3.82446,-2.85745 -0.66258,0.44428 -0.80778,1.47961 -1.04616,2.18023 -0.44074,1.29539 -1.0065,2.54844 -1.70626,3.72498 -2.26017,3.80011 -5.34685,7.471907 -8.60669,10.446417 -1.72092,1.57028 -4.89759,4.10823 -6.91926,1.52269 -1.67108,-2.13719 -0.4228,-5.13511 1.33827,-6.678477 5.76005,-5.04799 11.65177,-10.35539 15.40654,-17.14398 1.4409,-2.60514 3.5344,-8.13475 -0.85179,-9.23769 -0.5517,-0.13873 -1.12749,-0.15926 -1.69239,-0.1125 -3.80871,0.31526 -6.96906,3.34786 -9.286,6.13286 -3.65432,4.39255 -6.39207,9.62181 -8.52302,14.90134 -0.73428,1.81921 -1.17402,3.83803 -2.0466,5.588 -0.5997,1.202687 -1.56527,2.220357 -2.44995,3.217327 -1.54511,1.74119 -3.21806,3.76752 -5.46509,4.572 m 29.80268,-30.988007 c -0.28366,2.63705 -1.78398,4.94758 -3.22224,7.112 -3.14616,4.73464 -7.10569,9.29718 -11.67909,12.70002 0.64398,-2.15477 1.76684,-4.14357 2.86217,-6.096 1.76521,-3.14654 3.7319,-6.19143 6.0343,-8.97466 1.64315,-1.98631 3.46831,-3.98036 6.00486,-4.74136 m -30.48791,15.21417 c 2.38218,-0.17584 1.67529,2.79984 1.01868,4.08985 -0.54927,1.07911 -1.41411,1.9695 -1.94754,3.048 -0.3992,0.80711 -0.21741,1.719827 -0.56878,2.539997 -0.71172,1.66128 -2.17627,3.22847 -3.36798,4.56308 -0.94034,1.05308 -2.36643,2.64639 -3.90599,2.68246 -0.88134,0.0207 -1.30231,-0.71489 -1.40606,-1.49856 -0.1835,-1.38608 0.25393,-2.9184 0.68408,-4.22299 1.09057,-3.307487 2.90452,-6.535387 5.44381,-8.941997 1.08349,-1.02687 2.49519,-2.1451 4.04978,-2.25984 m -44.357419,4.42851 -0.16934,0.16934 0.16934,-0.16934 m 4.74133,0.16934 -0.16933,0.16933 0.16933,-0.16933 m 10.166885,7.526967 c -1.400825,0.50236 -2.317145,2.26412 -1.312185,3.55114 0.758535,0.97144 2.452605,1.3466 3.599205,0.93774 0.92611,-0.33023 0.93279,-1.3702 0.80151,-2.1954 -0.24424,-1.53536 -1.41365,-2.89412 -3.08853,-2.29348 m 7.806224,0.01 c -1.36691,0.43868 -2.42116,3.22039 -1.2771,4.33543 0.63663,0.62049 1.83627,0.46228 2.60259,0.2303 0.81245,-0.24596 1.60268,-0.76384 1.82563,-1.63079 0.43874,-1.70602 -1.48495,-3.46967 -3.15112,-2.93494"
       style="fill:#FFFFFF;fill-opacity:1;stroke:none"
       id="path1-8" /></g></svg>
